<svg width="50" height="74" viewBox="0 0 50 74" fill="none" xmlns="http://www.w3.org/2000/svg">
<rect x="1" y="0.5" width="48" height="73" fill="#23A6F0"/>
<rect x="1" y="0.5" width="48" height="73" stroke="#E9E9E9"/>
<path d="M24.4437 37.436C25.0224 36.848 25.4331 36.3813 25.6757 36.036C25.9277 35.6813 26.0537 35.3407 26.0537 35.014C26.0537 34.6873 25.9464 34.4167 25.7317 34.202C25.5171 33.978 25.2417 33.866 24.9057 33.866C24.2897 33.866 23.7064 34.3047 23.1557 35.182L21.4057 34.146C21.8631 33.4367 22.3624 32.9 22.9037 32.536C23.4544 32.172 24.1497 31.99 24.9897 31.99C25.8391 31.99 26.5811 32.2607 27.2157 32.802C27.8597 33.334 28.1817 34.062 28.1817 34.986C28.1817 35.49 28.0511 35.9753 27.7897 36.442C27.5377 36.8993 27.0664 37.4873 26.3757 38.206L24.6117 40.04H28.4757V42H21.5737V40.376L24.4437 37.436Z" fill="white"/>
</svg>
