<svg width="50" height="74" viewBox="0 0 50 74" fill="none" xmlns="http://www.w3.org/2000/svg">
<rect x="1" y="0.5" width="48" height="73" fill="white"/>
<rect x="1" y="0.5" width="48" height="73" stroke="#E9E9E9"/>
<path d="M21.9143 34.076V32.214H27.9063V33.726L25.9043 36.008C26.6883 36.1387 27.2949 36.47 27.7243 37.002C28.1536 37.5247 28.3683 38.1313 28.3683 38.822C28.3683 39.8487 28.0183 40.656 27.3183 41.244C26.6276 41.8227 25.7409 42.112 24.6583 42.112C23.5756 42.112 22.4789 41.7293 21.3683 40.964L22.2643 39.228C23.1883 39.8813 24.0143 40.208 24.7423 40.208C25.1809 40.208 25.5403 40.1007 25.8203 39.886C26.1096 39.6713 26.2543 39.3633 26.2543 38.962C26.2543 38.5513 26.0909 38.2293 25.7643 37.996C25.4376 37.7533 24.9849 37.632 24.4063 37.632C24.0983 37.632 23.6643 37.7207 23.1043 37.898V36.288L24.9803 34.076H21.9143Z" fill="#23A6F0"/>
</svg>
