<svg width="84" height="74" viewBox="0 0 84 74" fill="none" xmlns="http://www.w3.org/2000/svg">
<rect x="1" y="0.5" width="82" height="73" fill="#F3F3F3"/>
<rect x="1" y="0.5" width="82" height="73" stroke="#BDBDBD"/>
<path d="M33.651 32.214V34.132H29.115V36.246H33.427V38.164H29.115V42H26.931V32.214H33.651ZM37.5932 42H35.4932V34.468H37.5932V42ZM35.6612 33.516C35.4279 33.2733 35.3112 32.9793 35.3112 32.634C35.3112 32.2887 35.4279 31.9993 35.6612 31.766C35.9039 31.5233 36.1979 31.402 36.5432 31.402C36.8886 31.402 37.1779 31.5233 37.4112 31.766C37.6539 31.9993 37.7752 32.2887 37.7752 32.634C37.7752 32.9793 37.6539 33.2733 37.4112 33.516C37.1779 33.7493 36.8886 33.866 36.5432 33.866C36.1979 33.866 35.9039 33.7493 35.6612 33.516ZM43.7431 36.316C43.1178 36.316 42.6511 36.54 42.3431 36.988C42.0351 37.4267 41.8811 38.01 41.8811 38.738V42H39.7811V34.468H41.8811V35.462C42.1518 35.154 42.4878 34.8927 42.8891 34.678C43.2998 34.4633 43.7151 34.3513 44.1351 34.342L44.1491 36.316H43.7431ZM51.3523 39.662C51.3523 40.3993 51.0769 40.992 50.5263 41.44C49.9849 41.888 49.2943 42.112 48.4543 42.112C47.8943 42.112 47.3109 42.014 46.7043 41.818C46.0976 41.6127 45.5516 41.314 45.0663 40.922L45.9903 39.606C46.7743 40.2127 47.6096 40.516 48.4963 40.516C48.7669 40.516 48.9816 40.4647 49.1403 40.362C49.2989 40.25 49.3783 40.1053 49.3783 39.928C49.3783 39.7507 49.2663 39.5873 49.0423 39.438C48.8276 39.2887 48.5103 39.1487 48.0903 39.018C47.6796 38.8873 47.3623 38.7753 47.1383 38.682C46.9236 38.5887 46.6763 38.4533 46.3963 38.276C45.8269 37.9213 45.5423 37.3987 45.5423 36.708C45.5423 36.008 45.8223 35.4387 46.3823 35C46.9423 34.5613 47.6656 34.342 48.5523 34.342C49.4389 34.342 50.3256 34.6407 51.2123 35.238L50.4283 36.638C49.7749 36.19 49.1216 35.966 48.4683 35.966C47.8243 35.966 47.5023 36.1433 47.5023 36.498C47.5023 36.694 47.6049 36.848 47.8103 36.96C48.0156 37.072 48.3563 37.2027 48.8323 37.352C49.3083 37.5013 49.6443 37.618 49.8403 37.702C50.0456 37.7767 50.2883 37.898 50.5683 38.066C51.0909 38.3833 51.3523 38.9153 51.3523 39.662ZM55.607 35.98V39.354C55.607 39.6433 55.6817 39.872 55.831 40.04C55.9804 40.1987 56.1577 40.278 56.363 40.278C56.755 40.278 57.0864 40.1007 57.357 39.746L58.141 41.216C57.4877 41.8133 56.797 42.112 56.069 42.112C55.3504 42.112 54.739 41.874 54.235 41.398C53.7404 40.922 53.493 40.2733 53.493 39.452V35.98H52.611V34.468H53.493V32.214H55.607V34.468H57.427V35.98H55.607Z" fill="#BDBDBD"/>
</svg>
