<svg width="86" height="74" viewBox="0 0 86 74" fill="none" xmlns="http://www.w3.org/2000/svg">
<rect x="1" y="0.5" width="84" height="73" fill="white"/>
<rect x="1" y="0.5" width="84" height="73" stroke="#E8E8E8"/>
<path d="M33.626 32.214H35.81V42H33.626L28.964 35.868V42H26.78V32.214H28.824L33.626 38.514V32.214ZM44.7373 40.908C43.888 41.7107 42.8893 42.112 41.7413 42.112C40.6027 42.112 39.66 41.762 38.9133 41.062C38.1667 40.3527 37.7933 39.4053 37.7933 38.22C37.7933 37.0347 38.1713 36.092 38.9273 35.392C39.6927 34.692 40.5933 34.342 41.6293 34.342C42.6653 34.342 43.5427 34.6547 44.2613 35.28C44.9893 35.9053 45.3533 36.764 45.3533 37.856V38.976H39.8653C39.9307 39.3867 40.1453 39.7227 40.5093 39.984C40.8733 40.2453 41.284 40.376 41.7413 40.376C42.4787 40.376 43.0853 40.1287 43.5613 39.634L44.7373 40.908ZM43.2253 37.478C43.1787 37.03 43.0107 36.6847 42.7213 36.442C42.432 36.1993 42.0773 36.078 41.6573 36.078C41.2467 36.078 40.8687 36.204 40.5233 36.456C40.178 36.708 39.9773 37.0487 39.9213 37.478H43.2253ZM48.6966 34.468L49.9846 36.484L51.3146 34.468H53.7786L51.1886 38.15L53.8766 42H51.3706L49.9006 39.928L48.4726 42H46.0506L48.6826 38.164L46.1906 34.468H48.6966ZM57.758 35.98V39.354C57.758 39.6433 57.8327 39.872 57.982 40.04C58.1313 40.1987 58.3087 40.278 58.514 40.278C58.906 40.278 59.2373 40.1007 59.508 39.746L60.292 41.216C59.6387 41.8133 58.948 42.112 58.22 42.112C57.5013 42.112 56.89 41.874 56.386 41.398C55.8913 40.922 55.644 40.2733 55.644 39.452V35.98H54.762V34.468H55.644V32.214H57.758V34.468H59.578V35.98H57.758Z" fill="#23A6F0"/>
</svg>
